#tb 0: 1/22050
#media_type 0: audio
#codec_id 0: pcm_s16le
#sample_rate 0: 22050
#channel_layout_name 0: mono
0,          0,          0,     2048,     4096, 0x1d9cf1f1
0,       2048,       2048,     2048,     4096, 0xf133f443
0,       4096,       4096,     2048,     4096, 0x7226ecbd
0,       6144,       6144,     2048,     4096, 0xdcd3eeee
0,       8192,       8192,     2048,     4096, 0x3ef6ead5
0,      10240,      10240,     2048,     4096, 0x7cdcf072
0,      12288,      12288,     2048,     4096, 0xf26df202
0,      14336,      14336,     2048,     4096, 0x56b8f1de
0,      16384,      16384,     2048,     4096, 0xd68df028
0,      18432,      18432,     2048,     4096, 0x2bf4ec79
